# AST/ASF file generated using VICON BodyLanguage
# -----------------------------------------------
:version 1.10
:name VICON
:units
  mass 1.0
  length 0.45
  angle deg
:documentation
   .ast/.asf automatically generated from VICON data using
   VICON BodyBuilder and BodyLanguage model FoxedUp or BRILLIANT.MOD
:root
   order TX TY TZ RX RY RZ
   axis XYZ
   position 0 0 0  
   orientation 0 0 0 
:bonedata
  begin
     id 1 
     name lhipjoint
     direction 0.693937 -0.600361 0.397515 
     length 2.37164 
     axis 0 0 0  XYZ
  end
  begin
     id 2 
     name lfemur
     direction 0.34202 -0.939693 0  
     length 6.18497  
     axis 0 0 20  XYZ
    dof rx ry rz
    limits (-160.0 20.0)
           (-70.0 70.0)
           (-60.0 70.0)
  end
  begin
     id 3 
     name ltibia
     direction 0.34202 -0.939693 0   
     length 6.91601   
     axis 0 0 20   XYZ
    dof rx
    limits (-10.0 170.0)
  end
  begin
     id 4 
     name lfoot
     direction 0.0978718 -0.2689 0.958182   
     length 1.81453   
     axis -90 7.62852e-016 20   XYZ
    dof rx rz
    limits (-45.0 90.0)
           (-70.0 20.0)
  end
  begin
     id 5 
     name ltoes
     direction 1.53569e-011 -4.21951e-011 1   
     length 0.912052   
     axis -90 7.62852e-016 20   XYZ
    dof rx
    limits (-90.0 20.0)
  end
  begin
     id 6 
     name rhipjoint
     direction -0.643996 -0.637876 0.422354   
     length 2.23216  
     axis 0 0 0  XYZ 
  end
  begin
     id 7 
     name rfemur
     direction -0.34202 -0.939693 0   
     length 6.15404   
     axis 0 0 -20   XYZ
    dof rx ry rz
    limits (-160.0 20.0)
           (-70.0 70.0)
           (-70.0 60.0)
  end
  begin
     id 8 
     name rtibia
     direction -0.34202 -0.939693 0   
     length 6.86744   
     axis 0 0 -20   XYZ
    dof rx
    limits (-10.0 170.0)
 end
 begin
     id 9 
     name rfoot
     direction -0.118701 -0.326127 0.937844   
     length 1.9243  
     axis -90 -7.62852e-016 -20   XYZ
    dof rx rz
    limits (-45.0 90.0)
           (-20.0 70.0)
  end
  begin
     id 10 
     name rtoes
     direction -1.5356e-011 -4.2181e-011 1   
     length 0.958865   
     axis -90 -7.62852e-016 -20   XYZ
    dof rx
    limits (-90.0 20.0)
  end
  begin
     id 11 
     name lowerback
     direction 0.0310826 0.968686 -0.246334   
     length 2.00021   
     axis 0 0 0   XYZ
    dof rx ry rz
    limits (-20.0 45.0)
           (-30.0 30.0)
           (-30.0 30.0)
  end
  begin
     id 12 
     name upperback
     direction -0.0152834 0.999474 -0.0286152   
     length 2.03728   
     axis 0 0 0   XYZ
    dof rx ry rz
    limits (-20.0 45.0)
           (-30.0 30.0)
           (-30.0 30.0)
  end
  begin
     id 13 
     name thorax
     direction -0.0323701 0.996236 0.0804149   
     length 2.16   
     axis 0 0 0   XYZ
    dof rx ry rz
    limits (-20.0 45.0)
           (-30.0 30.0)
           (-30.0 30.0)
  end
  begin
     id 14 
     name lowerneck
     direction 0.0307935 0.982251 0.185027   
     length 1.43558   
     axis 0 0 0   XYZ
    dof rx ry rz
    limits (-20.0 45.0)
           (-30.0 30.0)
           (-30.0 30.0)
  end
  begin
     id 15 
     name upperneck
     direction -0.0927153 0.994775 0.0427454   
     length 1.44603   
     axis 0 0 0   XYZ
    dof rx ry rz
    limits (-20.0 45.0)
           (-30.0 30.0)
           (-30.0 30.0)
  end
  begin
     id 16
     name head
     direction -0.0341265 0.999406 -0.00472033  
     length 1.45931  
     axis 0 0 0   XYZ
    dof rx ry rz
    limits (-20.0 45.0)
           (-30.0 30.0)
           (-30.0 30.0)
  end
  begin
     id 17 
     name lclavicle
     direction 0.820755 0.555306 -0.134151  
     length 2.66075  
     axis 0 0 0   XYZ
    dof ry rz
    limits (-20.0 10.0)
           (0.0 20.0)
  end
  begin
     id 18 
     name lhumerus
     direction 1 -4.48971e-011 5.24853e-027   
     length 5.0546   
     axis -180 -30 -90   XYZ
    dof rx ry rz
    limits (-60.0 90.0)
           (-90.0 90.0)
           (-90.0 90.0)
  end
  begin
     id 19
     name lradius
     direction 1 -4.48971e-011 2.76575e-028   
     length 3.39013   
     axis -180 -30 -90   XYZ
    dof rx
    limits (-10.0 170.0)
  end
  begin
     id 20
     name lwrist
     direction 1 -4.48939e-011 -2.27826e-027   
     length 1.69507   
     axis 2.17013e-015 90 90   XYZ
    dof ry
    limits (-180.0 0.0)
 end
  begin
     id 21 
     name lhand
     direction 1 -4.49009e-011 -4.55652e-027   
     length 0.572425   
     axis 2.90745e-015 90 90   XYZ
    dof rx rz
    limits (-90.0 90.0)
           (-45.0 45.0)
  end
  begin
     id 22 
     name lfingers
     direction 1 -4.48955e-011 -9.11303e-027   
     length 0.461504   
     axis 5.81489e-015 90 90   XYZ
    dof rx
    limits (0.0 90.0)
  end
  begin
     id 23
     name lthumb
     direction 0.707107 -6.34929e-011 0.707107   
     length 0.66263   
     axis -90 45 2.85299e-015   XYZ
    dof rx rz
    limits (-45.0 45.0)
           (-45.0 45.0)
  end
  begin
     id 24 
     name rclavicle
     direction -0.754477 0.632921 -0.173712   
     length 2.73081  
     axis 0 0 0   XYZ 
    dof ry rz
    limits (-10.0 20.0)
           (-20.0 0.0)
  end
  begin
     id 25 
     name rhumerus
     direction -1 -4.48969e-011 5.1496e-027  
     length 5.0701   
     axis -180 30 90   XYZ
    dof rx ry rz
    limits (-90.0 60.0)
           (-90.0 90.0)
           (-90.0 90.0)
  end
  begin
     id 26 
     name rradius
     direction -1 -4.48967e-011 -7.15624e-028   
     length 3.14957   
     axis -180 30 90   XYZ
    dof rx
    limits (-10.0 170.0)
  end
  begin
     id 27 
     name rwrist
     direction -1 -4.48938e-011 -2.27826e-027   
     length 1.57479   
     axis 2.17013e-015 -90 -90   XYZ
    dof ry
    limits (-180.0 0.0)
  end
  begin
     id 28
     name rhand
     direction -1 -4.49008e-011 -4.55652e-027   
     length 0.718191   
     axis 2.90745e-015 -90 -90   XYZ
    dof rx rz
    limits (-90.0 90.0)
           (-45.0 45.0)
  end
  begin
     id 29
     name rfingers
     direction -1 -4.48953e-011 -9.11303e-027   
     length 0.579024   
     axis 5.81489e-015 -90 -90   XYZ
    dof rx
    limits (0.0 90.0)
  end
  begin
     id 30
     name rthumb
     direction -0.707107 -6.34937e-011 0.707107   
     length 0.831366   
     axis -90 -45 -2.85299e-015   XYZ
    dof rx rz
    limits (-45.0 45.0)
           (-45.0 45.0)
  end
:hierarchy
  begin
    root lhipjoint rhipjoint lowerback
    lhipjoint lfemur
    lfemur ltibia
    ltibia lfoot
    lfoot ltoes
    rhipjoint rfemur
    rfemur rtibia
    rtibia rfoot
    rfoot rtoes
    lowerback upperback
    upperback thorax
    thorax lowerneck lclavicle rclavicle
    lowerneck upperneck
    upperneck head
    lclavicle lhumerus
    lhumerus lradius
    lradius lwrist
    lwrist lhand lthumb
    lhand lfingers
    rclavicle rhumerus
    rhumerus rradius
    rradius rwrist
    rwrist rhand rthumb
    rhand rfingers
  end

#!OML:ASF H:\Male1\Project 1\Capture day 1\Session 1\Male1.ASF
:FULLY-SPECIFIED
:DEGREES
1
root -22.6452 15.0017 0.979593 -18.6328 85.1857 -15.8624
lowerback 4.87455 2.69859 -0.114115
upperback 1.95199 3.61455 -1.24882
thorax -0.648805 1.82715 -1.40773
lowerneck -3.64835 5.41409 11.2866
upperneck 14.2465 7.29346 -4.96398
head 5.49591 3.93716 -2.93346
rclavicle 4.71617e-014 3.18055e-015
rhumerus -36.4222 -0.123206 -88.4065
rradius 33.0725
rwrist -15.6673
rhand -16.2617 2.14704
rfingers 7.12502
rthumb 9.94771 -27.5979
lclavicle 4.71617e-014 3.18055e-015
lhumerus -31.5329 4.29924 83.3885
lradius 28.0566
lwrist -3.65156
lhand -17.3709 10.5026
lfingers 7.12502
lthumb 8.8774 40.2958
rfemur -4.04531 19.2059 24.1409
rtibia 27.5989
rfoot -31.9648 -30.7097
rtoes -19.161
lfemur -4.62921 -20.6117 -20.3531
ltibia 30.3113
lfoot -27.616 27.6393
ltoes -7.40076
2
root -22.6444 15.005 0.977898 -19.7006 85.1775 -17.0545
lowerback 4.73633 2.686 0.0224696
upperback 1.93155 3.60369 -1.23914
thorax -0.58535 1.82193 -1.4664
lowerneck -3.70004 5.41427 11.2269
upperneck 14.3389 7.2793 -4.83468
head 5.52585 3.93653 -2.8821
rclavicle -2.20154e-014 1.11319e-014
rhumerus -36.3877 -0.151684 -88.4287
rradius 33.0169
rwrist -15.6523
rhand -16.2751 2.09061
rfingers 7.12502
rthumb 9.93479 -27.655
lclavicle -2.20154e-014 1.11319e-014
lhumerus -31.5665 4.41824 83.2509
lradius 27.9008
lwrist -3.70903
lhand -17.2833 10.1146
lfingers 7.12502
lthumb 8.96196 39.9043
rfemur -4.1378 19.1938 24.1871
rtibia 27.5068
rfoot -31.9217 -30.6468
rtoes -18.9437
lfemur -4.78555 -20.6299 -20.2024
ltibia 30.3228
lfoot -27.5718 27.6494
ltoes -7.49095
3
root -22.6426 15.0082 0.976742 -18.17 85.2195 -15.6352
lowerback 4.61259 2.69606 -0.0814314
upperback 1.90309 3.6124 -1.28198
thorax -0.54908 1.82582 -1.44707
lowerneck -3.78886 5.39475 11.2021
upperneck 14.4848 7.24223 -4.76677
head 5.5803 3.92365 -2.85606
rclavicle -2.78299e-014 -9.54166e-015
rhumerus -36.4081 -0.202035 -88.417
rradius 32.9736
rwrist -15.6608
rhand -16.2436 2.09437
rfingers 7.12502
rthumb 9.96517 -27.6497
lclavicle -2.78299e-014 -9.54166e-015
lhumerus -31.6581 4.58749 83.1083
lradius 27.7917
lwrist -3.75468
lhand -17.1836 9.64812
lfingers 7.12502
lthumb 9.05815 39.4336
rfemur -4.24602 19.1866 23.9908
rtibia 27.4713
rfoot -32.0682 -30.5414
rtoes -18.7654
lfemur -4.88212 -20.7299 -20.3257
ltibia 30.2713
lfoot -27.5106 27.7822
ltoes -7.53026
4
root -22.6412 15.0133 0.97578 -17.526 85.232 -15.161
lowerback 4.43952 2.63511 -0.203277
upperback 1.95845 3.529 -1.28251
thorax -0.405219 1.78441 -1.36485
lowerneck -4.24451 5.49611 11.2703
upperneck 14.6653 7.33064 -4.83252
head 5.72711 3.95984 -2.86692
rclavicle -1.81888e-014 8.74653e-015
rhumerus -36.1397 -0.0908097 -88.4957
rradius 32.8523
rwrist -15.6218
rhand -16.1837 2.10125
rfingers 7.12502
rthumb 10.0229 -27.6401
lclavicle -1.81888e-014 8.74653e-015
lhumerus -31.5553 5.00114 82.9297
lradius 27.7247
lwrist -3.9274
lhand -17.2305 9.64007
lfingers 7.12502
lthumb 9.01296 39.4275
rfemur -4.40775 19.1921 23.8745
rtibia 27.405
rfoot -32.1062 -30.5601
rtoes -18.7194
lfemur -5.04463 -20.8199 -20.3314
ltibia 30.2335
lfoot -27.4789 27.8787
ltoes -7.52484
5
root -22.6395 15.0182 0.973767 -19.0896 85.1709 -16.8998
lowerback 4.25353 2.6044 -0.0547159
upperback 1.94867 3.49429 -1.24707
thorax -0.305814 1.76737 -1.40024
lowerneck -4.3671 5.52517 11.2468
upperneck 14.704 7.35393 -4.80829
head 5.76049 3.9694 -2.84996
rclavicle -3.36443e-014 -2.38542e-015
rhumerus -36.0349 -0.0773081 -88.542
rradius 32.7645
rwrist -15.551
rhand -16.153 2.16465
rfingers 7.12502
rthumb 10.0525 -27.5753
lclavicle -3.36443e-014 -2.38542e-015
lhumerus -31.5427 5.07409 82.8536
lradius 27.6585
lwrist -3.95488
lhand -17.3377 9.90453
lfingers 7.12502
lthumb 8.90946 39.6964
rfemur -4.57951 19.1936 23.9725
rtibia 27.3792
rfoot -32.0855 -30.4874
rtoes -18.3485
lfemur -5.19459 -20.8436 -20.1105
ltibia 30.1756
lfoot -27.454 27.9166
ltoes -7.59837
6
root -22.6361 15.0258 0.971893 -18.6065 85.1687 -16.7011
lowerback 3.94818 2.61012 -0.0408672
upperback 1.872 3.50157 -1.27285
thorax -0.211714 1.77023 -1.42102
lowerneck -4.35134 5.48444 11.1849
upperneck 14.712 7.29962 -4.7578
head 5.7515 3.9437 -2.8289
rclavicle 4.84538e-014 -1.90833e-014
rhumerus -36.0889 -0.0746451 -88.5726
rradius 32.7782
rwrist -15.5892
rhand -16.1399 2.23444
rfingers 7.12502
rthumb 10.0652 -27.5049
lclavicle 4.84538e-014 -1.90833e-014
lhumerus -31.5641 4.7675 82.8829
lradius 27.5795
lwrist -3.65147
lhand -17.4994 10.1472
lfingers 7.12502
lthumb 8.75343 39.9457
rfemur -4.87913 19.2099 23.8378
rtibia 27.3484
rfoot -32.0258 -30.4821
rtoes -18.4019
lfemur -5.48788 -20.8587 -20.0289
ltibia 30.1302
lfoot -27.4426 27.938
ltoes -7.56455
7
root -22.6366 15.025 0.971132 -17.9191 85.1698 -16.0212
lowerback 3.93251 2.61417 -0.128961
upperback 1.88362 3.50434 -1.25867
thorax -0.19716 1.77114 -1.35643
lowerneck -4.35893 5.46812 11.1255
upperneck 14.7137 7.28219 -4.75936
head 5.74939 3.93183 -2.82121
rclavicle -8.05078e-015 -8.74653e-015
rhumerus -36.1152 0.00810794 -88.5781
rradius 32.8083
rwrist -15.6427
rhand -16.1241 2.16638
rfingers 7.12502
rthumb 10.0804 -27.5722
lclavicle -8.05078e-015 -8.74653e-015
lhumerus -31.558 4.73798 82.8933
lradius 27.5105
lwrist -3.52222
lhand -17.4783 10.0916
lfingers 7.12502
lthumb 8.77378 39.8892
rfemur -4.8757 19.2617 23.7762
rtibia 27.3002
rfoot -32.0269 -30.5858
rtoes -18.6369
lfemur -5.49962 -20.874 -20.0839
ltibia 30.1291
lfoot -27.5505 27.8744
ltoes -7.16072
8
root -22.6371 15.0242 0.96912 -18.3678 85.1675 -16.5004
lowerback 3.87875 2.59195 -0.127557
upperback 1.90449 3.47542 -1.20254
thorax -0.149892 1.75646 -1.29527
lowerneck -4.36841 5.4876 11.0733
upperneck 14.7179 7.31427 -4.77181
head 5.75317 3.94356 -2.81405
rclavicle 3.14577e-014 4.77083e-015
rhumerus -36.0608 0.072404 -88.5495
rradius 32.767
rwrist -15.5831
rhand -15.9214 2.23931
rfingers 7.12502
rthumb 10.276 -27.4897
lclavicle 3.14577e-014 4.77083e-015
lhumerus -31.5435 5.02955 82.846
lradius 27.4644
lwrist -3.66
lhand -17.3952 9.87565
lfingers 7.12502
lthumb 8.85397 39.6699
rfemur -4.89645 19.2319 23.7976
rtibia 27.2552
rfoot -31.8088 -30.6814
rtoes -18.8635
lfemur -5.53906 -20.9395 -20.0367
ltibia 30.1432
lfoot -27.7124 27.7651
ltoes -6.58645
9
root -22.6377 15.025 0.967184 -19.9526 85.1257 -18.1441
lowerback 3.82664 2.57042 0.0098915
upperback 1.90442 3.45118 -1.1485
thorax -0.116706 1.74469 -1.31291
lowerneck -4.48115 5.49557 11.0108
upperneck 14.8425 7.31249 -4.69736
head 5.80646 3.94495 -2.77668
rclavicle -2.68359e-015 -9.54166e-015
rhumerus -35.9998 0.113075 -88.5669
rradius 32.7141
rwrist -15.5361
rhand -15.5099 2.49523
rfingers 7.12502
rthumb 10.673 -27.2137
lclavicle -2.68359e-015 -9.54166e-015
lhumerus -31.5266 5.2704 82.7862
lradius 27.4268
lwrist -3.79008
lhand -17.5297 9.84628
lfingers 7.12502
lthumb 8.72421 39.646
rfemur -4.95054 19.205 23.9281
rtibia 27.2347
rfoot -31.5342 -30.7572
rtoes -19.1487
lfemur -5.62303 -20.8985 -19.8546
ltibia 30.1681
lfoot -27.6448 27.7535
ltoes -6.77609
10
root -22.6384 15.027 0.966077 -21.2004 85.0758 -19.4633
lowerback 3.76062 2.56248 0.104672
upperback 1.89593 3.44334 -1.0984
thorax -0.086328 1.74081 -1.31101
lowerneck -4.55948 5.48364 10.9743
upperneck 14.9281 7.29003 -4.66831
head 5.84245 3.93453 -2.76074
rclavicle -1.5207e-014 1.51076e-014
rhumerus -36.016 0.245144 -88.6089
rradius 32.7678
rwrist -15.6371
rhand -15.3681 2.4541
rfingers 7.12502
rthumb 10.8097 -27.2477
lclavicle -1.5207e-014 1.51076e-014
lhumerus -31.5145 5.41791 82.765
lradius 27.4066
lwrist -3.8605
lhand -17.6219 10.0994
lfingers 7.12502
lthumb 8.63522 39.9028
rfemur -5.01087 19.2781 24.0423
rtibia 27.2145
rfoot -31.7173 -30.7184
rtoes -18.9153
lfemur -5.72885 -20.798 -19.6789
ltibia 30.1893
lfoot -27.524 27.7727
ltoes -7.18433
